<?xml version="1.0" standalone="no"?>
<!DOCTYPE svg PUBLIC "-//W3C//DTD SVG 20010904//EN"
 "http://www.w3.org/TR/2001/REC-SVG-20010904/DTD/svg10.dtd">
<svg version="1.0" xmlns="http://www.w3.org/2000/svg"
 width="512.000000pt" height="512.000000pt" viewBox="0 0 512.000000 512.000000"
 preserveAspectRatio="xMidYMid meet">
<metadata>
Created by potrace 1.11, written by Peter Selinger 2001-2013
</metadata>
<g transform="translate(0.000000,512.000000) scale(0.100000,-0.100000)"
fill="#000000" stroke="none">
<path d="M1855 4392 c-168 -108 -286 -354 -314 -653 -28 -299 81 -623 268
-791 172 -155 421 -160 561 -11 57 60 121 195 157 328 23 88 27 119 27 260 0
144 -2 170 -27 260 -118 435 -269 609 -552 640 -58 6 -62 5 -120 -33z m223
-51 c73 -37 162 -117 211 -190 97 -144 123 -257 124 -541 1 -383 -61 -530
-245 -585 -66 -19 -101 -19 -168 1 -72 21 -180 128 -232 229 -102 198 -150
487 -115 690 33 189 112 323 242 410 50 33 97 30 183 -14z"/>
<path d="M3170 4327 c-115 -65 -136 -79 -211 -147 -90 -81 -144 -152 -207
-271 -159 -298 -182 -590 -66 -835 96 -205 268 -310 462 -283 82 12 131 38
201 107 120 119 259 383 312 592 51 199 40 491 -24 645 -51 124 -134 193 -264
220 -99 21 -120 18 -203 -28z m184 -24 c50 -14 70 -27 126 -82 95 -95 115
-152 115 -326 -1 -117 -4 -144 -37 -270 -74 -284 -143 -441 -234 -533 -87 -87
-154 -117 -259 -117 -69 1 -86 4 -120 27 -71 46 -117 111 -155 218 -34 99 -39
308 -11 450 51 250 129 401 268 515 65 53 204 134 232 135 8 0 42 -8 75 -17z"/>
<path d="M1034 3321 c-335 -187 -421 -629 -201 -1030 89 -161 213 -277 363
-338 61 -25 82 -28 174 -28 94 1 110 3 156 27 76 40 130 101 180 203 104 214
98 411 -21 677 -67 150 -133 257 -209 335 -70 75 -117 104 -219 137 -103 34
-183 40 -223 17z m206 -79 c112 -55 244 -190 298 -303 44 -94 55 -131 77 -277
27 -183 17 -364 -26 -437 -60 -101 -235 -147 -369 -96 -189 71 -371 343 -410
610 -32 219 55 420 226 522 62 36 100 32 204 -19z"/>
<path d="M3860 3051 c-165 -66 -186 -78 -247 -138 -190 -186 -321 -506 -311
-759 2 -74 0 -104 -8 -104 -6 0 -31 26 -54 58 -56 75 -179 194 -250 242 -118
80 -261 139 -398 164 -72 14 -87 14 -120 1 -20 -8 -75 -24 -121 -35 -94 -24
-143 -46 -216 -98 -481 -346 -838 -859 -880 -1267 -21 -199 79 -369 261 -445
215 -89 428 -77 879 49 225 64 290 60 475 -23 132 -60 190 -76 272 -76 78 0
160 24 239 70 265 157 342 269 319 471 -8 71 -50 198 -100 304 -97 207 -130
279 -130 286 0 15 19 10 61 -17 58 -36 188 -67 263 -62 109 7 227 83 316 202
195 265 270 462 270 706 -1 289 -94 448 -285 488 -114 24 -134 23 -235 -17z
m235 -46 c72 -33 111 -70 153 -144 37 -66 37 -67 37 -181 -1 -95 -6 -131 -28
-207 -68 -233 -162 -423 -246 -504 -75 -71 -147 -102 -250 -107 -75 -4 -93 -1
-141 20 -68 31 -106 68 -136 133 -29 63 -46 181 -38 260 18 170 78 379 142
495 69 126 132 174 312 241 85 32 116 31 195 -6z m-1440 -557 c193 -63 394
-225 577 -466 15 -21 28 -40 28 -43 0 -4 16 -31 36 -60 68 -101 170 -324 216
-474 54 -173 66 -336 31 -415 -23 -51 -57 -88 -123 -133 -148 -102 -272 -103
-487 -1 -148 71 -202 86 -308 91 -109 5 -138 -1 -415 -86 -196 -59 -308 -81
-428 -81 -193 0 -303 47 -355 153 -25 50 -29 69 -29 145 0 106 13 177 55 297
59 167 236 487 321 578 14 15 26 32 26 38 0 21 278 288 350 336 107 71 145 89
254 117 54 13 100 27 104 31 9 8 74 -3 147 -27z"/>
</g>
</svg>
