<?xml version="1.0" standalone="no"?>
<!DOCTYPE svg PUBLIC "-//W3C//DTD SVG 20010904//EN"
 "http://www.w3.org/TR/2001/REC-SVG-20010904/DTD/svg10.dtd">
<svg version="1.0" xmlns="http://www.w3.org/2000/svg"
 width="384.000000pt" height="384.000000pt" viewBox="0 0 384.000000 384.000000"
 preserveAspectRatio="xMidYMid meet">
<metadata>
Created by potrace 1.11, written by Peter Selinger 2001-2013
</metadata>
<g transform="translate(0.000000,384.000000) scale(0.100000,-0.100000)"
fill="#000000" stroke="none">
<path d="M486 3774 c-54 -27 -96 -70 -123 -124 -17 -33 -18 -130 -18 -1730 l0
-1695 22 -41 c25 -47 66 -84 127 -117 l41 -22 1375 0 c1373 0 1375 0 1420 21
54 25 103 72 133 128 l22 41 3 1265 c1 871 -1 1273 -8 1291 -6 14 -232 246
-503 517 l-492 492 -975 0 -975 -1 -49 -25z m1864 -528 c0 -404 2 -422 56
-493 14 -18 49 -47 77 -63 l52 -30 383 0 382 0 0 -1194 0 -1195 -26 -20 -27
-21 -1336 0 c-1034 1 -1340 3 -1352 13 -9 7 -21 22 -27 34 -9 16 -12 432 -12
1653 l0 1632 29 29 29 29 886 0 886 0 0 -374z m522 -404 l-297 -3 -22 28 c-23
28 -23 32 -23 325 l0 297 319 -322 320 -322 -297 -3z"/>
<path d="M1337 3139 c-84 -44 -157 -149 -176 -253 -48 -260 72 -536 275 -637
222 -110 422 91 400 401 -3 47 -13 110 -21 140 -56 210 -221 371 -379 370 -41
-1 -73 -7 -99 -21z"/>
<path d="M2230 3134 c-258 -146 -343 -602 -152 -815 121 -135 282 -131 422 10
54 55 106 140 135 220 l14 41 -60 0 c-108 0 -242 88 -287 189 -13 27 -18 79
-22 208 l-5 172 -45 -25z"/>
<path d="M2902 2428 c-160 -28 -317 -192 -366 -383 -36 -139 -24 -252 35 -350
79 -130 199 -158 353 -81 113 55 193 152 241 294 50 143 49 261 -1 367 -54
115 -153 173 -262 153z"/>
<path d="M847 2379 c-80 -18 -144 -65 -180 -134 -17 -33 -22 -62 -25 -160 -4
-109 -1 -128 22 -199 66 -197 224 -339 392 -353 73 -7 122 15 183 79 57 59 76
120 75 243 -1 114 -20 183 -79 284 -93 158 -267 266 -388 240z"/>
<path d="M1883 1889 c-160 -15 -322 -95 -443 -218 -66 -68 -201 -286 -253
-411 -34 -83 -77 -244 -77 -292 0 -90 65 -195 147 -236 93 -48 179 -38 434 48
282 96 350 94 626 -17 162 -65 253 -78 340 -49 135 45 187 158 148 322 -39
166 -239 483 -409 648 -172 166 -316 224 -513 205z"/>
</g>
</svg>
